<svg width="24" height="24" viewBox="0 0 24 24" fill="none" xmlns="http://www.w3.org/2000/svg">
<g id="Traced Image" clip-path="url(#clip0_569_7418)">
<path id="Vector" fill-rule="evenodd" clip-rule="evenodd" d="M10.9956 0.0399437C10.9575 0.0901562 10.9203 0.198106 10.8804 0.374119C10.7716 0.854244 10.5594 1.29487 10.2539 1.67503C9.84102 2.18891 9.23582 2.57093 8.58087 2.73113C8.32826 2.79292 8.20609 2.83369 8.16168 2.87107C8.06556 2.95194 8.15158 3.00736 8.50884 3.09466C8.75748 3.15542 8.90212 3.20273 9.08087 3.28176C9.76978 3.58633 10.3002 4.09272 10.6252 4.75628C10.7521 5.01512 10.8019 5.15284 10.8746 5.44559C10.9612 5.79417 11.0078 5.88033 11.0829 5.83112C11.128 5.80154 11.1565 5.72806 11.2201 5.47728C11.3385 5.01034 11.453 4.74277 11.6812 4.40003C12.0537 3.84053 12.6108 3.41284 13.2559 3.19109C13.3246 3.16746 13.4808 3.12324 13.6028 3.09284C13.9012 3.01856 13.9822 2.97859 13.9725 2.91043C13.9655 2.86137 13.8586 2.81593 13.5958 2.75031C13.4638 2.71736 13.3081 2.67362 13.2496 2.65309C12.4224 2.36263 11.7689 1.75998 11.4163 0.962531C11.3298 0.767081 11.2956 0.663106 11.2242 0.378369C11.1562 0.107231 11.1129 0.00898121 11.0588 0.00244371C11.035 -0.000431289 11.0191 0.00898121 10.9956 0.0399437ZM4.82811 3.59277C4.75407 3.65506 4.69924 3.80194 4.61203 4.17156C4.57727 4.31892 4.52328 4.52174 4.49207 4.62228C4.07386 5.96933 3.13114 7.08658 1.87462 7.72433C1.51576 7.90648 1.16201 8.03686 0.755695 8.13676C0.346345 8.23739 0.29967 8.25013 0.198657 8.28887C0.0100821 8.36117 -0.0455679 8.44822 0.0432446 8.53197C0.11612 8.60071 0.262895 8.64973 0.74962 8.76794C1.76581 9.01476 2.64783 9.53716 3.36344 10.316C3.98856 10.9964 4.40189 11.8015 4.61782 12.7592C4.69352 13.095 4.76727 13.2807 4.84337 13.3271C4.89263 13.3571 4.90295 13.3561 4.94932 13.3171C5.02664 13.252 5.08828 13.0904 5.16792 12.7438C5.25324 12.3724 5.33501 12.1137 5.46407 11.8065C6.00548 10.5182 7.05206 9.49452 8.34962 8.98399C8.65196 8.86504 8.81309 8.81576 9.17462 8.73163C9.44936 8.66771 9.54962 8.63716 9.65108 8.58644C9.72556 8.54922 9.78712 8.48782 9.78712 8.45076C9.78712 8.36242 9.57047 8.26219 9.20587 8.18187C8.52296 8.03139 7.92841 7.78136 7.36837 7.40911C6.70684 6.96939 6.13018 6.34862 5.73427 5.65003C5.46714 5.17869 5.29371 4.72012 5.16222 4.13753C5.05561 3.66517 4.94887 3.49114 4.82811 3.59277ZM15.2178 6.16771C15.1274 6.20683 15.0219 6.37612 14.938 6.61682C14.8924 6.74767 14.8219 7.01747 14.7496 7.33753C14.5813 8.08348 14.3315 8.78607 13.997 9.45497C13.3518 10.7452 12.415 11.8667 11.2496 12.7444C10.3525 13.42 9.29851 13.941 8.20587 14.2491C7.98836 14.3104 7.90369 14.3314 7.46837 14.4321C6.95759 14.5502 6.63891 14.682 6.56159 14.8071C6.54717 14.8305 6.53712 14.8689 6.53712 14.9008C6.53712 14.9496 6.54348 14.961 6.60274 15.0184C6.74733 15.1583 7.01923 15.2533 7.74789 15.4182C8.79397 15.6549 9.81147 16.085 10.7309 16.6792C11.7443 17.3341 12.6337 18.1958 13.3197 19.1875C14.0018 20.1736 14.479 21.2602 14.7496 22.4438C14.8729 22.9826 14.9366 23.1997 15.0244 23.3794C15.1498 23.636 15.2805 23.6917 15.4104 23.5438C15.5103 23.43 15.6353 23.0963 15.7246 22.7049C15.9163 21.8652 16.0574 21.4137 16.318 20.8063C17.2832 18.5563 19.132 16.7552 21.4059 15.8497C21.8248 15.6829 22.3206 15.5264 22.7309 15.4315C23.5462 15.2428 23.7914 15.1583 23.934 15.0168C23.9924 14.9588 23.9996 14.9459 23.9996 14.8992C23.9996 14.8285 23.9636 14.7742 23.8799 14.7187C23.6942 14.5954 23.4665 14.5227 22.7434 14.3557C21.5501 14.0801 20.3984 13.5537 19.3934 12.8246C18.7466 12.3553 18.1169 11.7549 17.6045 11.1188C16.9388 10.2924 16.4022 9.31476 16.0539 8.29378C15.9704 8.04901 15.8539 7.64147 15.8002 7.40628C15.6538 6.76524 15.6068 6.60484 15.504 6.39412C15.4525 6.28859 15.3654 6.18121 15.3209 6.16846C15.2627 6.15174 15.2548 6.15169 15.2178 6.16771Z" fill="white"/>
</g>
<defs>
<clipPath id="clip0_569_7418">
<rect width="24" height="23.625" fill="white"/>
</clipPath>
</defs>
</svg>
