<svg width="92" height="92" viewBox="0 0 92 92" fill="none" xmlns="http://www.w3.org/2000/svg">
<g id="mingcute:mail-line" clip-path="url(#clip0_569_7587)">
<g id="Group">
<path id="Vector" d="M76.666 15.334C78.6002 15.3334 80.4632 16.0639 81.8814 17.3791C83.2997 18.6942 84.1684 20.4969 84.3135 22.4257L84.3327 23.0007V69.0006C84.3333 70.9349 83.6028 72.7978 82.2876 74.2161C80.9724 75.6343 79.1698 76.5031 77.241 76.6482L76.666 76.6673H15.3327C13.3985 76.6679 11.5355 75.9374 10.1172 74.6222C8.69899 73.3071 7.83025 71.5044 7.68518 69.5756L7.66602 69.0006V23.0007C7.6654 21.0664 8.39591 19.2035 9.71109 17.7852C11.0263 16.367 12.8289 15.4982 14.7577 15.3532L15.3327 15.334H76.666ZM76.666 28.421L50.0627 55.0243C48.9846 56.1011 47.5231 56.7059 45.9993 56.7059C44.4756 56.7059 43.0141 56.1011 41.936 55.0243L15.3327 28.421V69.0006H76.666V28.421ZM71.2457 23.0007H20.753L45.9993 48.247L71.2457 23.0007Z" fill="black"/>
</g>
</g>
<defs>
<clipPath id="clip0_569_7587">
<rect width="92" height="92" fill="white"/>
</clipPath>
</defs>
</svg>
