<svg width="31" height="22" viewBox="0 0 31 22" fill="none" xmlns="http://www.w3.org/2000/svg">
<g id="Traced Image">
<path id="Vector" fill-rule="evenodd" clip-rule="evenodd" d="M5.20035 1.45998C4.45775 1.65728 3.92365 2.06388 3.55625 2.71148L3.25035 3.25078L3.22285 10.7917C3.19145 19.4359 3.16045 19.0704 3.99555 19.9056C4.84485 20.7548 4.12545 20.7082 15.9073 20.6776L26.2504 20.6508L26.7653 20.3792C27.3985 20.0453 27.8233 19.5454 28.0375 18.8822C28.1819 18.435 28.2004 17.5486 28.2004 11.0575C28.2004 3.13388 28.2012 3.14738 27.659 2.41238C27.3136 1.94428 26.8106 1.62698 26.135 1.45098C25.2848 1.22948 6.03685 1.23788 5.20035 1.45998ZM5.39655 2.92578C5.08495 3.08288 4.89005 3.27138 4.75035 3.55078C4.55745 3.93648 4.54925 4.18418 4.51915 10.5008C4.50195 14.1033 4.51665 17.3305 4.55175 17.6723C4.62565 18.3923 4.88515 18.8425 5.40065 19.1454C5.72585 19.3364 5.94145 19.3532 8.47535 19.3853L11.2004 19.4197V11.0603V2.70078H8.52155C5.94235 2.70078 5.82615 2.70918 5.39655 2.92578ZM12.5248 11.0258L12.5504 19.3508H19.1004C25.4706 19.3508 25.6597 19.3453 25.9899 19.1508C26.1767 19.0408 26.4242 18.8238 26.5399 18.6685C26.7487 18.3885 26.7506 18.3292 26.7773 11.1433C26.8035 4.08698 26.7991 3.89028 26.6057 3.51108C26.469 3.24318 26.2716 3.05628 25.9722 2.91128C25.5436 2.70388 25.4417 2.70078 19.0183 2.70078H12.4993L12.5248 11.0258ZM6.37535 5.80878C6.15775 5.93548 6.14805 6.33428 6.35745 6.54368C6.58555 6.77168 9.05296 6.77288 9.37806 6.54508C9.64795 6.35608 9.66345 6.08888 9.41745 5.86628C9.26605 5.72918 9.00395 5.70128 7.89245 5.70378C7.15435 5.70548 6.47165 5.75268 6.37535 5.80878ZM6.37535 8.60878C6.13285 8.74998 6.14485 9.26408 6.39375 9.39728C6.50015 9.45418 7.19065 9.50078 7.92825 9.50078C9.10045 9.50078 9.29015 9.47778 9.43485 9.31788C9.64996 9.08018 9.64435 8.87168 9.41745 8.66628C9.26605 8.52918 9.00395 8.50128 7.89245 8.50378C7.15435 8.50548 6.47165 8.55268 6.37535 8.60878ZM6.42265 11.4565C6.14725 11.6493 6.13135 12.0569 6.39375 12.1973C6.50015 12.2542 7.19065 12.3008 7.92825 12.3008C9.10045 12.3008 9.29015 12.2778 9.43485 12.1179C9.66165 11.8673 9.64235 11.6415 9.37806 11.4565C9.05735 11.2318 6.74335 11.2318 6.42265 11.4565Z" fill="black"/>
</g>
</svg>
