<svg width="24" height="24" viewBox="0 0 24 24" fill="none" xmlns="http://www.w3.org/2000/svg">
<g id="Traced Image">
<path id="Vector" fill-rule="evenodd" clip-rule="evenodd" d="M11.4612 2.02915C10.8512 2.12077 10.377 2.29033 9.99121 2.55487C9.88396 2.62843 9.70846 2.7349 9.60121 2.79151C9.34273 2.92789 9.02143 3.25243 8.86018 3.53998C8.59582 4.01134 8.45119 4.63978 8.40355 5.52367L8.37631 6.02929L8.28589 6.10537C8.14384 6.22492 8.08843 6.43321 8.09059 6.83971C8.09404 7.48513 8.33956 8.13784 8.63728 8.293C8.69554 8.32336 8.74657 8.40748 8.83216 8.61442C9.21109 9.53035 9.85825 10.4036 10.5207 10.8931C10.7528 11.0645 11.1346 11.2615 11.3862 11.3398C11.6706 11.4283 12.1529 11.4512 12.4401 11.39C13.5098 11.162 14.5648 10.1034 15.1958 8.62471C15.2833 8.41957 15.3454 8.32228 15.4543 8.21971C15.7325 7.9576 15.9035 7.44529 15.91 6.85471C15.9144 6.45256 15.8601 6.22255 15.7382 6.12664C15.6782 6.07942 15.6654 6.02869 15.6343 5.71375C15.5267 4.62646 15.4512 4.22794 15.2741 3.81166C15.0882 3.37489 14.7879 3.0109 14.4634 2.82919C14.3879 2.78692 14.2317 2.68828 14.1162 2.60998C13.4872 2.18356 12.8537 2.00626 11.9862 2.01391C11.7387 2.0161 11.5025 2.02294 11.4612 2.02915ZM9.53041 11.5429C9.48691 11.6133 8.90938 11.9758 8.59072 12.1327C8.03176 12.4079 7.68952 12.5131 6.6841 12.7188C5.76934 12.906 5.48146 13.0271 5.18059 13.3509C4.72579 13.8404 4.50679 14.7696 4.49251 16.2707C4.48636 16.9175 4.48807 16.9385 4.55818 17.0797C4.9519 17.8728 6.59095 18.5074 8.98621 18.7939C9.20071 18.8196 9.42346 18.8467 9.48121 18.8543C9.57712 18.8668 9.56929 18.8585 9.39121 18.7581C9.01102 18.5437 8.76754 18.2194 8.68327 17.8152C8.61139 17.4705 8.68396 17.1006 8.91193 16.6497C9.35851 15.7664 10.1213 15.1714 11.1012 14.9419C11.6783 14.8067 12.303 14.7955 12.9012 14.9095C14.1466 15.1467 15.0103 15.9074 15.2757 17.0007C15.396 17.4964 15.3548 18.1876 15.1781 18.6372C15.1319 18.7546 15.1296 18.7797 15.1649 18.7797C15.1885 18.7797 15.482 18.7336 15.817 18.6772C17.5446 18.3864 18.735 17.9319 19.2399 17.3704C19.315 17.2869 19.4079 17.1547 19.4463 17.0766C19.5137 16.9397 19.516 16.9113 19.5104 16.2747C19.4966 14.7233 19.2513 13.7454 18.7607 13.2865C18.4494 12.9953 18.2049 12.9008 17.2581 12.7059C16.5246 12.5548 16.0256 12.4141 15.6869 12.2629C15.3202 12.0991 14.9397 11.8867 14.6804 11.7009L14.4348 11.525L14.4163 11.6094C14.3692 11.8238 14.0201 12.0689 13.5612 12.2098C13.0096 12.3791 12.8044 12.4047 12.0012 12.4045C11.3554 12.4043 11.225 12.3959 10.9267 12.3357C10.1589 12.1807 9.68665 11.9211 9.58099 11.5962C9.5629 11.5406 9.54409 11.5208 9.53041 11.5429ZM11.7012 15.978C11.1801 16.042 10.7063 16.2444 10.392 16.5375C10.1664 16.7478 9.93532 17.0801 9.84289 17.3271C9.71284 17.6747 9.74746 17.7104 10.4794 17.983C10.8731 18.1296 11.0336 18.1583 11.1092 18.0955C11.133 18.0758 11.2116 17.9441 11.2838 17.8031C11.356 17.662 11.4524 17.5013 11.4981 17.4459C11.758 17.1305 12.399 17.121 12.5814 17.4297C12.6481 17.5425 12.6447 17.8021 12.5746 17.9564C12.5019 18.1166 12.3338 18.2565 11.9971 18.437C11.3819 18.7667 11.1376 19.1455 11.1213 19.7949C11.1118 20.172 11.1751 20.2028 11.9217 20.1851C12.4377 20.1728 12.4509 20.1659 12.4834 19.8903C12.5178 19.5981 12.6159 19.5042 13.2829 19.125C13.7846 18.8397 14.1069 18.4347 14.1887 17.9867C14.2929 17.4163 14.1492 16.9337 13.7585 16.5417C13.3871 16.1691 12.9101 15.9964 12.1962 15.9762C11.9817 15.9701 11.759 15.9709 11.7012 15.978ZM11.2931 20.4921C11.1635 20.5297 11.0474 20.6553 11.0084 20.8C10.9894 20.8706 10.9802 21.0813 10.9867 21.2985C11.0003 21.7518 11.0373 21.8448 11.2397 21.9343C11.3591 21.9872 11.4281 21.9927 11.8655 21.9842C12.3061 21.9757 12.3658 21.9683 12.4416 21.9128C12.5819 21.8101 12.6392 21.6539 12.6547 21.3322C12.6792 20.8233 12.5825 20.5686 12.337 20.495C12.1998 20.4539 11.4322 20.4518 11.2931 20.4921Z" fill="black"/>
</g>
</svg>
